<svg width="116" height="54" viewBox="0 0 116 54" fill="none" xmlns="http://www.w3.org/2000/svg">
<g filter="url(#filter0_d_119_187)">
<path d="M9.85938 10.6328L8.07812 9.55469C6.96094 8.875 6.16406 8.20703 5.6875 7.55078C5.21875 6.88672 4.98438 6.125 4.98438 5.26562C4.98438 3.97656 5.42969 2.92969 6.32031 2.125C7.21875 1.32031 8.38281 0.917969 9.8125 0.917969C11.1797 0.917969 12.4336 1.30078 13.5742 2.06641V4.72656C12.3945 3.59375 11.125 3.02734 9.76562 3.02734C9 3.02734 8.37109 3.20703 7.87891 3.56641C7.38672 3.91797 7.14062 4.37109 7.14062 4.92578C7.14062 5.41797 7.32031 5.87891 7.67969 6.30859C8.03906 6.73828 8.62109 7.1875 9.42578 7.65625L11.2188 8.71094C13.2188 9.89844 14.2188 11.4141 14.2188 13.2578C14.2188 14.5703 13.7773 15.6367 12.8945 16.457C12.0195 17.2773 10.8789 17.6875 9.47266 17.6875C7.85547 17.6875 6.38281 17.1914 5.05469 16.1992V13.2227C6.32031 14.8242 7.78516 15.625 9.44922 15.625C10.1836 15.625 10.793 15.4219 11.2773 15.0156C11.7695 14.6016 12.0156 14.0859 12.0156 13.4688C12.0156 12.4688 11.2969 11.5234 9.85938 10.6328ZM28.3398 1.12891H30.6836V17.5H28.3398V10.375H19.1406V17.5H16.7969V1.12891H19.1406V8.20703H28.3398V1.12891ZM42.3438 0.894531C44.875 0.894531 46.9805 1.69531 48.6602 3.29688C50.3477 4.89844 51.1914 6.90625 51.1914 9.32031C51.1914 11.7344 50.3398 13.7344 48.6367 15.3203C46.9414 16.8984 44.8008 17.6875 42.2148 17.6875C39.7461 17.6875 37.6875 16.8984 36.0391 15.3203C34.3984 13.7344 33.5781 11.75 33.5781 9.36719C33.5781 6.92188 34.4062 4.89844 36.0625 3.29688C37.7188 1.69531 39.8125 0.894531 42.3438 0.894531ZM42.4375 3.12109C40.5625 3.12109 39.0195 3.70703 37.8086 4.87891C36.6055 6.05078 36.0039 7.54688 36.0039 9.36719C36.0039 11.1328 36.6094 12.6016 37.8203 13.7734C39.0312 14.9453 40.5469 15.5312 42.3672 15.5312C44.1953 15.5312 45.7188 14.9336 46.9375 13.7383C48.1641 12.543 48.7773 11.0547 48.7773 9.27344C48.7773 7.53906 48.1641 6.08203 46.9375 4.90234C45.7188 3.71484 44.2188 3.12109 42.4375 3.12109ZM53.9336 17.5V1.10547H59.125C60.6875 1.10547 61.9336 1.52734 62.8633 2.37109C63.793 3.21484 64.2578 4.34766 64.2578 5.76953C64.2578 6.72266 64.0195 7.56641 63.543 8.30078C63.0664 9.03516 62.4141 9.57031 61.5859 9.90625C60.7578 10.2344 59.5703 10.3984 58.0234 10.3984H56.2891V17.5H53.9336ZM58.7148 3.19141H56.2891V8.3125H58.8555C59.8086 8.3125 60.543 8.08984 61.0586 7.64453C61.5742 7.19141 61.832 6.54688 61.832 5.71094C61.832 4.03125 60.793 3.19141 58.7148 3.19141ZM20.875 40.8945C20.875 42.293 20.3945 43.4102 19.4336 44.2461C18.4805 45.082 17.1445 45.5 15.4258 45.5H6.03906V29.2578H13.8906C14.9062 29.2578 15.7891 29.3555 16.5391 29.5508C17.2969 29.7461 17.9062 30.0156 18.3672 30.3594C18.8281 30.6953 19.1719 31.0938 19.3984 31.5547C19.625 32.0156 19.7383 32.5195 19.7383 33.0664C19.7383 33.6602 19.6211 34.2109 19.3867 34.7188C19.1523 35.2188 18.8594 35.6328 18.5078 35.9609C18.1641 36.2812 17.8164 36.5078 17.4648 36.6406C18.5742 37.0781 19.418 37.6328 19.9961 38.3047C20.582 38.9688 20.875 39.832 20.875 40.8945ZM15.1562 33.9336C15.1562 33.1523 14.8984 32.6328 14.3828 32.375C13.8672 32.1172 13.0625 31.9883 11.9688 31.9883H10.9375V35.8789H11.9922C13.1094 35.8789 13.9141 35.75 14.4062 35.4922C14.9062 35.2344 15.1562 34.7148 15.1562 33.9336ZM15.9531 40.6953C15.9531 39.3047 14.9453 38.6094 12.9297 38.6094H10.9375V42.7695H12.9297C14.9453 42.7695 15.9531 42.0781 15.9531 40.6953ZM41.1484 45.5H36.1328L34.8086 42.207H27.7539L26.4062 45.5H21.3906L28.5742 29.2578H33.9883L41.1484 45.5ZM33.6836 39.3828L31.3047 33.4531L28.9023 39.3828H33.6836ZM60.3906 45.5H54.4141L48.2031 37.8945V45.5H43.3047V29.2578H48.2031V36.5234L54.0859 29.2578H59.4062L53.3594 36.8633L60.3906 45.5ZM74.7695 45.5H62.5234V29.2578H74.5703V32.5156H67.4219V35.4922H74.2422V38.7617H67.4219V42.2305H74.7695V45.5ZM93.7891 45.5H88.5273L87.25 42.6172C86.7812 41.5625 86.3594 40.793 85.9844 40.3086C85.6094 39.8164 85.2422 39.5039 84.8828 39.3711C84.5312 39.2305 84.0742 39.1602 83.5117 39.1602H82.9609V45.5H78.0625V29.2578H86.3945C87.7383 29.2578 88.8398 29.5312 89.6992 30.0781C90.5586 30.625 91.1758 31.2891 91.5508 32.0703C91.9336 32.8516 92.125 33.5938 92.125 34.2969C92.125 35.1172 91.9648 35.8125 91.6445 36.3828C91.332 36.9453 91 37.3555 90.6484 37.6133C90.2969 37.8711 89.9023 38.1172 89.4648 38.3516C89.9883 38.6562 90.418 39.0195 90.7539 39.4414C91.0977 39.8555 91.5625 40.6992 92.1484 41.9727L93.7891 45.5ZM87.1328 34.3906C87.1328 33.6406 86.8867 33.1172 86.3945 32.8203C85.9023 32.5234 85.1016 32.375 83.9922 32.375H82.9609V36.2891H84.0156C85.2109 36.2891 86.0273 36.1602 86.4648 35.9023C86.9102 35.6367 87.1328 35.1328 87.1328 34.3906ZM111.156 29.2578L104.793 38.0586V45.5H99.8945V38.1523L93.4141 29.2578H98.5L102.227 34.3672L105.965 29.2578H111.156Z" fill="#FAF4EA"/>
</g>
<defs>
<filter id="filter0_d_119_187" x="0.984375" y="0.894531" width="114.172" height="52.6055" filterUnits="userSpaceOnUse" color-interpolation-filters="sRGB">
<feFlood flood-opacity="0" result="BackgroundImageFix"/>
<feColorMatrix in="SourceAlpha" type="matrix" values="0 0 0 0 0 0 0 0 0 0 0 0 0 0 0 0 0 0 127 0" result="hardAlpha"/>
<feOffset dy="4"/>
<feGaussianBlur stdDeviation="2"/>
<feComposite in2="hardAlpha" operator="out"/>
<feColorMatrix type="matrix" values="0 0 0 0 0 0 0 0 0 0 0 0 0 0 0 0 0 0 0.25 0"/>
<feBlend mode="normal" in2="BackgroundImageFix" result="effect1_dropShadow_119_187"/>
<feBlend mode="normal" in="SourceGraphic" in2="effect1_dropShadow_119_187" result="shape"/>
</filter>
</defs>
</svg>
